<mxfile host="Electron" modified="2023-06-17T08:29:18.613Z" agent="Mozilla/5.0 (Windows NT 10.0; Win64; x64) AppleWebKit/537.36 (KHTML, like Gecko) draw.io/21.1.2 Chrome/106.0.5249.199 Electron/21.4.3 Safari/537.36" etag="SU9ylwYhHhLIMuCPh9sx" version="21.1.2" type="device">
  <diagram name="第 1 页" id="WRR_KsmXpynHO_Hp34CQ">
    <mxGraphModel dx="1036" dy="614" grid="1" gridSize="10" guides="1" tooltips="1" connect="1" arrows="1" fold="1" page="1" pageScale="1" pageWidth="980" pageHeight="1390" math="0" shadow="0">
      <root>
        <mxCell id="0" />
        <mxCell id="1" parent="0" />
        <mxCell id="hEQePHEXwmUrN3H_09mT-29" value="" style="rounded=0;whiteSpace=wrap;html=1;" vertex="1" parent="1">
          <mxGeometry x="20" y="180" width="760" height="260" as="geometry" />
        </mxCell>
        <mxCell id="hEQePHEXwmUrN3H_09mT-16" value="" style="edgeStyle=orthogonalEdgeStyle;rounded=0;orthogonalLoop=1;jettySize=auto;html=1;" edge="1" parent="1" source="hEQePHEXwmUrN3H_09mT-1" target="hEQePHEXwmUrN3H_09mT-2">
          <mxGeometry relative="1" as="geometry" />
        </mxCell>
        <mxCell id="hEQePHEXwmUrN3H_09mT-1" value="外部流量" style="rounded=0;whiteSpace=wrap;html=1;" vertex="1" parent="1">
          <mxGeometry x="360" y="40" width="80" height="40" as="geometry" />
        </mxCell>
        <mxCell id="hEQePHEXwmUrN3H_09mT-19" style="rounded=0;orthogonalLoop=1;jettySize=auto;html=1;exitX=0.5;exitY=1;exitDx=0;exitDy=0;entryX=0.5;entryY=0;entryDx=0;entryDy=0;" edge="1" parent="1" source="hEQePHEXwmUrN3H_09mT-2" target="hEQePHEXwmUrN3H_09mT-3">
          <mxGeometry relative="1" as="geometry" />
        </mxCell>
        <mxCell id="hEQePHEXwmUrN3H_09mT-20" style="rounded=0;orthogonalLoop=1;jettySize=auto;html=1;exitX=0.5;exitY=1;exitDx=0;exitDy=0;entryX=0.5;entryY=0;entryDx=0;entryDy=0;" edge="1" parent="1" source="hEQePHEXwmUrN3H_09mT-2" target="hEQePHEXwmUrN3H_09mT-4">
          <mxGeometry relative="1" as="geometry" />
        </mxCell>
        <mxCell id="hEQePHEXwmUrN3H_09mT-2" value="负载均衡" style="rounded=0;whiteSpace=wrap;html=1;" vertex="1" parent="1">
          <mxGeometry x="360" y="120" width="80" height="40" as="geometry" />
        </mxCell>
        <mxCell id="hEQePHEXwmUrN3H_09mT-17" value="a.com" style="rounded=0;orthogonalLoop=1;jettySize=auto;html=1;exitX=0.5;exitY=1;exitDx=0;exitDy=0;" edge="1" parent="1" source="hEQePHEXwmUrN3H_09mT-3" target="hEQePHEXwmUrN3H_09mT-5">
          <mxGeometry relative="1" as="geometry" />
        </mxCell>
        <mxCell id="hEQePHEXwmUrN3H_09mT-18" value="b.com" style="rounded=0;orthogonalLoop=1;jettySize=auto;html=1;exitX=0.5;exitY=1;exitDx=0;exitDy=0;" edge="1" parent="1" source="hEQePHEXwmUrN3H_09mT-3" target="hEQePHEXwmUrN3H_09mT-7">
          <mxGeometry relative="1" as="geometry" />
        </mxCell>
        <mxCell id="hEQePHEXwmUrN3H_09mT-3" value="Ingress" style="rounded=0;whiteSpace=wrap;html=1;" vertex="1" parent="1">
          <mxGeometry x="240" y="222" width="80" height="40" as="geometry" />
        </mxCell>
        <mxCell id="hEQePHEXwmUrN3H_09mT-27" value="c.com\" style="rounded=0;orthogonalLoop=1;jettySize=auto;html=1;exitX=0.5;exitY=1;exitDx=0;exitDy=0;" edge="1" parent="1" source="hEQePHEXwmUrN3H_09mT-4" target="hEQePHEXwmUrN3H_09mT-8">
          <mxGeometry relative="1" as="geometry" />
        </mxCell>
        <mxCell id="hEQePHEXwmUrN3H_09mT-28" style="rounded=0;orthogonalLoop=1;jettySize=auto;html=1;exitX=0.5;exitY=1;exitDx=0;exitDy=0;" edge="1" parent="1" source="hEQePHEXwmUrN3H_09mT-4" target="hEQePHEXwmUrN3H_09mT-9">
          <mxGeometry relative="1" as="geometry" />
        </mxCell>
        <mxCell id="hEQePHEXwmUrN3H_09mT-31" value="c.com\route" style="edgeLabel;html=1;align=center;verticalAlign=middle;resizable=0;points=[];" vertex="1" connectable="0" parent="hEQePHEXwmUrN3H_09mT-28">
          <mxGeometry x="0.3692" y="-2" relative="1" as="geometry">
            <mxPoint x="4" y="-11" as="offset" />
          </mxGeometry>
        </mxCell>
        <mxCell id="hEQePHEXwmUrN3H_09mT-4" value="Ingress" style="rounded=0;whiteSpace=wrap;html=1;" vertex="1" parent="1">
          <mxGeometry x="480" y="222" width="80" height="40" as="geometry" />
        </mxCell>
        <mxCell id="hEQePHEXwmUrN3H_09mT-21" style="rounded=0;orthogonalLoop=1;jettySize=auto;html=1;exitX=0.5;exitY=1;exitDx=0;exitDy=0;entryX=0.5;entryY=0;entryDx=0;entryDy=0;" edge="1" parent="1" source="hEQePHEXwmUrN3H_09mT-5" target="hEQePHEXwmUrN3H_09mT-10">
          <mxGeometry relative="1" as="geometry" />
        </mxCell>
        <mxCell id="hEQePHEXwmUrN3H_09mT-22" style="edgeStyle=orthogonalEdgeStyle;rounded=0;orthogonalLoop=1;jettySize=auto;html=1;exitX=0.5;exitY=1;exitDx=0;exitDy=0;entryX=0.5;entryY=0;entryDx=0;entryDy=0;" edge="1" parent="1" source="hEQePHEXwmUrN3H_09mT-5" target="hEQePHEXwmUrN3H_09mT-11">
          <mxGeometry relative="1" as="geometry" />
        </mxCell>
        <mxCell id="hEQePHEXwmUrN3H_09mT-5" value="Service" style="rounded=0;whiteSpace=wrap;html=1;" vertex="1" parent="1">
          <mxGeometry x="160" y="302" width="80" height="40" as="geometry" />
        </mxCell>
        <mxCell id="hEQePHEXwmUrN3H_09mT-23" style="edgeStyle=orthogonalEdgeStyle;rounded=0;orthogonalLoop=1;jettySize=auto;html=1;exitX=0.5;exitY=1;exitDx=0;exitDy=0;entryX=0.5;entryY=0;entryDx=0;entryDy=0;" edge="1" parent="1" source="hEQePHEXwmUrN3H_09mT-7" target="hEQePHEXwmUrN3H_09mT-12">
          <mxGeometry relative="1" as="geometry" />
        </mxCell>
        <mxCell id="hEQePHEXwmUrN3H_09mT-7" value="Service" style="rounded=0;whiteSpace=wrap;html=1;" vertex="1" parent="1">
          <mxGeometry x="280" y="302" width="80" height="40" as="geometry" />
        </mxCell>
        <mxCell id="hEQePHEXwmUrN3H_09mT-24" style="edgeStyle=orthogonalEdgeStyle;rounded=0;orthogonalLoop=1;jettySize=auto;html=1;exitX=0.5;exitY=1;exitDx=0;exitDy=0;entryX=0.5;entryY=0;entryDx=0;entryDy=0;" edge="1" parent="1" source="hEQePHEXwmUrN3H_09mT-8" target="hEQePHEXwmUrN3H_09mT-13">
          <mxGeometry relative="1" as="geometry" />
        </mxCell>
        <mxCell id="hEQePHEXwmUrN3H_09mT-8" value="Service" style="rounded=0;whiteSpace=wrap;html=1;" vertex="1" parent="1">
          <mxGeometry x="440" y="302" width="80" height="40" as="geometry" />
        </mxCell>
        <mxCell id="hEQePHEXwmUrN3H_09mT-25" style="edgeStyle=orthogonalEdgeStyle;rounded=0;orthogonalLoop=1;jettySize=auto;html=1;exitX=0.5;exitY=1;exitDx=0;exitDy=0;entryX=0.5;entryY=0;entryDx=0;entryDy=0;" edge="1" parent="1" source="hEQePHEXwmUrN3H_09mT-9" target="hEQePHEXwmUrN3H_09mT-14">
          <mxGeometry relative="1" as="geometry" />
        </mxCell>
        <mxCell id="hEQePHEXwmUrN3H_09mT-26" style="rounded=0;orthogonalLoop=1;jettySize=auto;html=1;exitX=0.5;exitY=1;exitDx=0;exitDy=0;" edge="1" parent="1" source="hEQePHEXwmUrN3H_09mT-9" target="hEQePHEXwmUrN3H_09mT-15">
          <mxGeometry relative="1" as="geometry" />
        </mxCell>
        <mxCell id="hEQePHEXwmUrN3H_09mT-9" value="Service" style="rounded=0;whiteSpace=wrap;html=1;" vertex="1" parent="1">
          <mxGeometry x="560" y="302" width="80" height="40" as="geometry" />
        </mxCell>
        <mxCell id="hEQePHEXwmUrN3H_09mT-10" value="Pod" style="rounded=0;whiteSpace=wrap;html=1;" vertex="1" parent="1">
          <mxGeometry x="40" y="382" width="80" height="40" as="geometry" />
        </mxCell>
        <mxCell id="hEQePHEXwmUrN3H_09mT-11" value="Pod" style="rounded=0;whiteSpace=wrap;html=1;" vertex="1" parent="1">
          <mxGeometry x="160" y="382" width="80" height="40" as="geometry" />
        </mxCell>
        <mxCell id="hEQePHEXwmUrN3H_09mT-12" value="Pod" style="rounded=0;whiteSpace=wrap;html=1;" vertex="1" parent="1">
          <mxGeometry x="280" y="382" width="80" height="40" as="geometry" />
        </mxCell>
        <mxCell id="hEQePHEXwmUrN3H_09mT-13" value="Pod" style="rounded=0;whiteSpace=wrap;html=1;" vertex="1" parent="1">
          <mxGeometry x="440" y="382" width="80" height="40" as="geometry" />
        </mxCell>
        <mxCell id="hEQePHEXwmUrN3H_09mT-14" value="Pod" style="rounded=0;whiteSpace=wrap;html=1;" vertex="1" parent="1">
          <mxGeometry x="560" y="382" width="80" height="40" as="geometry" />
        </mxCell>
        <mxCell id="hEQePHEXwmUrN3H_09mT-15" value="Pod" style="rounded=0;whiteSpace=wrap;html=1;" vertex="1" parent="1">
          <mxGeometry x="680" y="382" width="80" height="40" as="geometry" />
        </mxCell>
        <mxCell id="hEQePHEXwmUrN3H_09mT-30" value="&lt;font style=&quot;font-size: 38px;&quot;&gt;&lt;b&gt;k8s&lt;/b&gt;&lt;/font&gt;" style="text;html=1;strokeColor=none;fillColor=none;align=center;verticalAlign=middle;whiteSpace=wrap;rounded=0;" vertex="1" parent="1">
          <mxGeometry x="30" y="200" width="60" height="30" as="geometry" />
        </mxCell>
      </root>
    </mxGraphModel>
  </diagram>
</mxfile>
